<?xml version="1.0" encoding="UTF-8"?>
<svg xmlns="http://www.w3.org/2000/svg" xmlns:xlink="http://www.w3.org/1999/xlink" viewBox="0 0 96 96" width="96px" height="96px">
<g id="surface22713519">
<path style=" stroke:none;fill-rule:nonzero;fill:rgb(92.54902%,94.117647%,94.509804%);fill-opacity:1;" d="M 48.28125 96.28125 C 21.769531 96.28125 0.28125 74.789062 0.28125 48.28125 C 0.28125 21.769531 21.769531 0.28125 48.28125 0.28125 C 74.789062 0.28125 96.28125 21.769531 96.28125 48.28125 C 96.28125 74.789062 74.789062 96.28125 48.28125 96.28125 Z M 48.28125 96.28125 "/>
<path style=" stroke:none;fill-rule:nonzero;fill:rgb(1.176471%,60.784316%,89.803922%);fill-opacity:1;" d="M 48 16.460938 C 30.582031 16.460938 16.460938 30.582031 16.460938 48 C 16.460938 65.417969 30.582031 79.539062 48 79.539062 C 65.417969 79.539062 79.539062 65.417969 79.539062 48 C 79.539062 30.582031 65.417969 16.460938 48 16.460938 Z M 48 16.460938 "/>
<path style=" stroke:none;fill-rule:nonzero;fill:rgb(100%,100%,100%);fill-opacity:1;" d="M 52.269531 56.359375 L 60.433594 56.359375 L 61.714844 48.066406 L 52.269531 48.066406 L 52.269531 43.535156 C 52.269531 40.089844 53.394531 37.039062 56.617188 37.039062 L 61.792969 37.039062 L 61.792969 29.800781 C 60.882812 29.679688 58.960938 29.410156 55.324219 29.410156 C 47.734375 29.410156 43.28125 33.417969 43.28125 42.550781 L 43.28125 48.066406 L 35.480469 48.066406 L 35.480469 56.359375 L 43.28125 56.359375 L 43.28125 79.148438 C 44.828125 79.382812 46.394531 79.539062 48 79.539062 C 49.453125 79.539062 50.871094 79.40625 52.269531 79.21875 Z M 52.269531 56.359375 "/>
</g>
</svg>
