<?xml version="1.0" encoding="UTF-8"?>
<svg xmlns="http://www.w3.org/2000/svg" xmlns:xlink="http://www.w3.org/1999/xlink" viewBox="0 0 96 96" width="96px" height="96px">
<g id="surface22688106">
<path style=" stroke:none;fill-rule:nonzero;fill:rgb(92.54902%,94.117647%,94.509804%);fill-opacity:1;" d="M 48.28125 96.28125 C 21.769531 96.28125 0.28125 74.789062 0.28125 48.28125 C 0.28125 21.769531 21.769531 0.28125 48.28125 0.28125 C 74.789062 0.28125 96.28125 21.769531 96.28125 48.28125 C 96.28125 74.789062 74.789062 96.28125 48.28125 96.28125 Z M 48.28125 96.28125 "/>
<path style=" stroke:none;fill-rule:nonzero;fill:rgb(18.82353%,30.980393%,99.607843%);fill-opacity:1;" d="M 77.332031 30.535156 C 76.667969 30.96875 75.722656 31.367188 75.324219 31.816406 C 75.175781 31.964844 75.089844 32.128906 75.125 32.296875 L 75.125 34.007812 L 74.625 35.683594 L 74.128906 37.34375 L 73.582031 39.167969 L 72.453125 42.902344 L 71.355469 46.589844 L 70.527344 49.359375 C 70.527344 49.792969 70.507812 50.222656 70.476562 50.640625 C 70.359375 52.234375 70.027344 53.761719 69.496094 55.1875 C 69.179688 56.066406 68.800781 56.914062 68.335938 57.710938 C 68.167969 58.027344 67.96875 58.339844 67.769531 58.640625 C 67.105469 59.6875 66.308594 60.648438 65.429688 61.496094 C 64.75 62.175781 64.003906 62.808594 63.1875 63.339844 C 63.1875 63.339844 63.1875 63.339844 63.171875 63.339844 C 63.039062 63.453125 62.890625 63.554688 62.722656 63.636719 C 62.210938 63.984375 61.660156 64.285156 61.097656 64.550781 C 60.714844 64.75 60.332031 64.914062 59.933594 65.066406 C 59.851562 65.113281 59.753906 65.148438 59.667969 65.179688 C 58.722656 65.628906 57.628906 65.929688 56.53125 66.078125 C 56.464844 66.09375 56.417969 66.09375 56.351562 66.109375 C 55.6875 66.226562 55.039062 66.328125 54.375 66.375 C 54.074219 66.410156 53.761719 66.425781 53.460938 66.425781 L 52.28125 66.359375 L 46.605469 66.0625 C 46.605469 66.042969 46.589844 66.0625 46.589844 66.0625 L 43.734375 65.910156 C 43.519531 65.910156 43.285156 65.910156 43.070312 65.894531 C 42.171875 65.863281 41.308594 65.761719 40.445312 65.578125 C 40.429688 65.578125 40.429688 65.578125 40.429688 65.578125 C 38.851562 65.28125 37.34375 64.75 35.933594 64.035156 C 35.152344 63.636719 34.386719 63.1875 33.675781 62.675781 C 33.375 62.457031 33.09375 62.226562 32.8125 61.976562 C 32.015625 61.3125 31.300781 60.597656 30.636719 59.867188 C 30.535156 59.769531 30.453125 59.667969 30.371094 59.570312 C 30.269531 59.46875 30.171875 59.355469 30.089844 59.253906 C 29.457031 58.457031 28.925781 57.644531 28.496094 56.78125 C 28.097656 56.019531 27.78125 55.203125 27.53125 54.308594 C 27.433594 53.992188 27.347656 53.695312 27.28125 53.363281 C 27.265625 53.34375 27.25 53.3125 27.25 53.277344 C 27.085938 52.597656 26.933594 51.882812 26.851562 51.171875 C 26.753906 50.621094 26.703125 50.074219 26.703125 49.511719 C 26.667969 49.292969 26.667969 49.0625 26.667969 48.847656 L 29.839844 43.949219 L 32.945312 39.167969 L 34.355469 36.996094 L 35.632812 35.035156 L 36.066406 34.355469 L 36.066406 32.644531 C 36.097656 32.261719 36.113281 31.863281 36.097656 31.5 C 36.082031 30.335938 35.847656 29.207031 35.46875 28.128906 C 35.101562 26.984375 34.585938 25.90625 34.054688 24.910156 C 33.425781 23.765625 32.761719 22.734375 32.214844 21.804688 C 31.398438 20.445312 30.835938 19.332031 30.984375 18.550781 C 32.179688 18.269531 33.441406 18.121094 34.71875 18.121094 L 61.28125 18.121094 C 68.21875 18.121094 74.195312 22.4375 76.667969 28.511719 C 76.933594 29.160156 77.167969 29.839844 77.332031 30.535156 Z M 77.332031 30.535156 "/>
<path style=" stroke:none;fill-rule:nonzero;fill:rgb(28.627452%,15.686275%,95.686275%);fill-opacity:1;" d="M 77.878906 34.71875 L 77.878906 35.167969 L 75.589844 36.496094 L 74.128906 37.34375 L 72.519531 38.273438 L 69.296875 40.148438 L 66.144531 41.972656 L 62.921875 43.832031 L 61.644531 44.582031 C 61.644531 45.378906 61.445312 46.109375 61.082031 46.773438 C 60.566406 47.734375 59.703125 48.53125 58.605469 49.210938 C 57.496094 49.890625 56.132812 50.441406 54.605469 50.839844 C 54.605469 50.839844 54.605469 50.820312 54.589844 50.839844 C 48.679688 52.367188 40.613281 51.667969 36.695312 48.746094 C 35.601562 47.933594 34.835938 46.9375 34.503906 45.792969 C 34.40625 45.410156 34.355469 44.996094 34.355469 44.582031 L 34.355469 32.644531 C 34.371094 32.394531 34.207031 32.148438 33.90625 31.898438 C 33.011719 31.183594 30.902344 30.503906 28.542969 29.824219 C 26.703125 29.308594 24.726562 28.792969 23.066406 28.296875 C 21.753906 27.898438 20.644531 27.5 19.980469 27.117188 C 20.277344 26.535156 20.625 25.957031 20.992188 25.40625 C 23.316406 22.003906 26.867188 19.496094 30.984375 18.550781 C 32.179688 18.269531 33.441406 18.121094 34.71875 18.121094 L 52.648438 18.121094 C 61.5625 19.679688 69.777344 23.316406 76.667969 28.511719 C 76.933594 29.160156 77.167969 29.839844 77.332031 30.535156 C 77.632812 31.632812 77.8125 32.761719 77.863281 33.941406 C 77.878906 34.1875 77.878906 34.453125 77.878906 34.71875 Z M 77.878906 34.71875 "/>
<path style=" stroke:none;fill-rule:nonzero;fill:rgb(38.431373%,0%,91.764706%);fill-opacity:1;" d="M 77.878906 34.71875 L 77.878906 42.039062 L 77.515625 43.167969 L 76.269531 47.039062 L 74.976562 51.019531 L 74.292969 53.144531 L 73.664062 55.121094 L 73.050781 56.996094 L 72.453125 58.855469 L 72.136719 59.835938 L 71.722656 61.128906 C 71.722656 62.390625 71.6875 63.503906 71.605469 64.449219 C 71.589844 64.550781 71.570312 64.648438 71.570312 64.75 C 71.472656 65.628906 71.339844 66.375 71.125 67.007812 C 71.105469 67.105469 71.074219 67.207031 71.039062 67.289062 C 70.609375 68.484375 69.960938 69.246094 69 69.746094 C 68.765625 69.878906 68.5 69.976562 68.21875 70.078125 C 67.339844 70.375 66.226562 70.527344 64.867188 70.609375 C 63.871094 70.675781 62.722656 70.691406 61.429688 70.691406 L 60.285156 70.691406 L 58.308594 70.609375 L 57.960938 70.59375 L 54.359375 70.441406 L 50.707031 70.292969 L 38.671875 69.796875 L 35.550781 69.664062 L 35.117188 69.664062 C 33.824219 69.644531 32.710938 69.5625 31.75 69.429688 C 30.355469 69.214844 29.273438 68.847656 28.460938 68.300781 C 27.300781 67.554688 26.621094 66.460938 26.222656 64.933594 C 26.121094 64.566406 26.039062 64.183594 25.988281 63.769531 C 25.824219 62.808594 25.738281 61.695312 25.691406 60.449219 C 25.691406 60.199219 25.691406 59.953125 25.671875 59.6875 C 25.65625 59.667969 25.671875 59.667969 25.671875 59.667969 L 25.671875 58.707031 C 25.65625 58.226562 25.65625 57.726562 25.65625 57.214844 L 25.738281 54.539062 L 25.789062 52.632812 L 25.855469 50.40625 L 25.855469 50.089844 L 26.089844 41.925781 L 26.203125 38.089844 L 26.304688 34.320312 L 26.335938 33.324219 C 26.335938 32.8125 24.59375 32.511719 22.652344 32.261719 C 21.109375 32.0625 19.414062 31.882812 18.402344 31.648438 C 18.484375 31.265625 18.566406 30.886719 18.667969 30.519531 C 18.964844 29.324219 19.414062 28.195312 19.980469 27.117188 C 20.277344 26.535156 20.625 25.957031 20.992188 25.40625 C 24.578125 23.832031 28.3125 22.601562 32.214844 21.804688 C 35.632812 21.089844 39.203125 20.710938 42.886719 20.710938 C 55.105469 20.710938 66.394531 24.84375 75.324219 31.816406 C 76.1875 32.480469 77.035156 33.191406 77.863281 33.941406 C 77.878906 34.1875 77.878906 34.453125 77.878906 34.71875 Z M 77.878906 34.71875 "/>
<path style=" stroke:none;fill-rule:nonzero;fill:rgb(40.392157%,22.745098%,71.764708%);fill-opacity:1;" d="M 77.878906 38.652344 L 77.878906 46.191406 L 76.96875 47.949219 L 75.222656 51.351562 L 74.292969 53.144531 L 73.449219 54.789062 L 73.082031 55.503906 C 73.082031 56.019531 73.082031 56.515625 73.050781 56.996094 C 73.050781 57.710938 73.015625 58.390625 72.964844 59.023438 C 72.898438 59.769531 72.800781 60.449219 72.699219 61.082031 C 72.453125 62.390625 72.101562 63.519531 71.605469 64.449219 C 71.539062 64.566406 71.472656 64.683594 71.40625 64.78125 C 71.222656 65.082031 71.007812 65.363281 70.773438 65.628906 C 70.476562 65.996094 70.144531 66.308594 69.761719 66.574219 C 69.199219 67.007812 68.535156 67.355469 67.769531 67.621094 C 66.824219 67.96875 65.730469 68.203125 64.433594 68.335938 C 63.585938 68.417969 62.65625 68.46875 61.644531 68.46875 L 60.949219 68.5 L 57.496094 68.699219 L 57.480469 68.699219 L 53.808594 68.914062 L 50.074219 69.132812 L 44.929688 69.429688 L 38.671875 69.796875 L 37.757812 69.84375 C 36.910156 69.84375 36.113281 69.796875 35.351562 69.695312 C 35.269531 69.679688 35.203125 69.664062 35.117188 69.664062 C 33.988281 69.480469 32.960938 69.179688 32.03125 68.765625 C 30.902344 68.269531 29.921875 67.605469 29.09375 66.808594 C 28.363281 66.09375 27.730469 65.28125 27.21875 64.367188 C 27.101562 64.152344 26.984375 63.953125 26.886719 63.71875 C 26.386719 62.742188 25.988281 61.644531 25.691406 60.449219 C 25.640625 60.25 25.589844 60.035156 25.558594 59.820312 C 25.457031 59.4375 25.375 59.039062 25.324219 58.625 C 25.140625 57.5625 25.042969 56.433594 24.992188 55.253906 L 24.992188 55.238281 C 24.976562 54.757812 24.960938 54.292969 24.960938 53.792969 L 24.144531 51.851562 L 24.03125 51.550781 L 23.929688 51.304688 L 22.683594 48.332031 L 22.484375 47.851562 L 21.289062 44.980469 L 19.960938 41.773438 C 19.960938 41.773438 19.960938 41.773438 19.945312 41.773438 L 18.601562 38.539062 L 18.121094 37.359375 L 18.121094 34.71875 C 18.121094 33.675781 18.21875 32.644531 18.402344 31.648438 C 18.484375 31.265625 18.566406 30.886719 18.667969 30.519531 C 20.078125 29.707031 21.554688 28.960938 23.066406 28.296875 C 26.519531 26.753906 30.222656 25.605469 34.054688 24.910156 C 36.910156 24.394531 39.882812 24.113281 42.886719 24.113281 C 55.023438 24.113281 66.027344 28.511719 74.625 35.683594 C 74.957031 35.949219 75.273438 36.214844 75.589844 36.496094 C 76.371094 37.175781 77.132812 37.890625 77.878906 38.652344 Z M 77.878906 38.652344 "/>
<path style=" stroke:none;fill-rule:nonzero;fill:rgb(55.686277%,14.117648%,66.666669%);fill-opacity:1;" d="M 77.878906 43.601562 L 77.878906 52.132812 L 76.933594 54.109375 L 75.140625 57.84375 L 75.125 57.894531 C 75.125 58.605469 75.089844 59.253906 75.042969 59.835938 C 74.875 61.746094 74.410156 62.957031 73.648438 63.703125 C 73.097656 64.269531 72.417969 64.582031 71.570312 64.75 C 71.523438 64.765625 71.457031 64.765625 71.40625 64.78125 C 71.140625 64.832031 70.859375 64.867188 70.558594 64.867188 C 69.53125 64.964844 68.320312 64.898438 66.925781 64.800781 C 66.773438 64.800781 66.609375 64.78125 66.441406 64.765625 C 65.429688 64.699219 64.351562 64.632812 63.15625 64.582031 C 62.507812 64.566406 61.828125 64.550781 61.128906 64.550781 L 61.097656 64.550781 L 59.421875 64.683594 L 59.402344 64.683594 L 55.636719 64.949219 L 51.335938 65.28125 L 50.707031 65.332031 L 45.675781 65.695312 L 43.070312 65.894531 L 40.496094 66.078125 C 40.046875 66.078125 39.617188 66.078125 39.183594 66.0625 C 39.183594 66.0625 39.167969 66.042969 39.167969 66.0625 C 37.292969 66.027344 35.617188 65.910156 34.121094 65.628906 C 32.746094 65.398438 31.53125 65.03125 30.503906 64.484375 C 29.441406 63.96875 28.5625 63.238281 27.847656 62.308594 C 27.167969 61.394531 26.667969 60.25 26.355469 58.871094 C 26.355469 58.855469 26.355469 58.855469 26.355469 58.855469 C 26.121094 57.746094 25.988281 56.449219 25.988281 54.988281 L 25.738281 54.539062 L 24.261719 51.902344 L 24.046875 51.535156 L 23.929688 51.304688 L 22.386719 48.5625 L 21.621094 47.1875 L 20.660156 45.476562 L 19 42.503906 L 18.121094 40.945312 L 18.121094 34.835938 C 19.582031 33.875 21.089844 33.027344 22.652344 32.261719 C 24.542969 31.300781 26.503906 30.488281 28.542969 29.824219 C 30.769531 29.09375 33.09375 28.511719 35.46875 28.128906 C 37.875 27.730469 40.347656 27.53125 42.886719 27.53125 C 54.175781 27.53125 64.535156 31.566406 72.519531 38.273438 C 72.882812 38.554688 73.230469 38.871094 73.582031 39.167969 C 74.976562 40.414062 76.304688 41.757812 77.515625 43.167969 C 77.648438 43.320312 77.78125 43.453125 77.878906 43.601562 Z M 77.878906 43.601562 "/>
<path style=" stroke:none;fill-rule:nonzero;fill:rgb(76.078433%,9.411765%,35.686275%);fill-opacity:1;" d="M 77.878906 49.179688 L 77.878906 61.179688 C 77.480469 60.949219 76.933594 60.664062 76.253906 60.367188 C 75.886719 60.183594 75.472656 60 75.042969 59.835938 C 74.410156 59.554688 73.730469 59.289062 72.964844 59.023438 C 72.800781 58.957031 72.632812 58.90625 72.453125 58.855469 C 72.152344 58.738281 71.835938 58.640625 71.523438 58.539062 C 70.542969 58.242188 69.464844 57.960938 68.335938 57.710938 C 67.902344 57.628906 67.457031 57.546875 67.007812 57.480469 C 65.5625 57.230469 64.019531 57.082031 62.410156 57.0625 C 62.277344 57.046875 62.125 57.046875 61.992188 57.046875 L 57.726562 57.082031 L 51.917969 57.113281 L 51.902344 57.113281 L 39.46875 57.214844 C 35.515625 57.214844 33.09375 58.160156 31.632812 58.539062 C 31.632812 58.539062 31.617188 58.539062 31.617188 58.558594 C 30.070312 58.957031 29.589844 58.707031 29.457031 56 C 29.425781 55.253906 29.40625 54.292969 29.40625 53.113281 L 28.476562 52.398438 L 26.851562 51.171875 L 25.855469 50.40625 L 25.65625 50.257812 L 22.902344 48.164062 L 22.484375 47.851562 L 21.621094 47.1875 L 20.027344 45.992188 L 18.121094 44.53125 L 18.121094 38.886719 C 18.285156 38.753906 18.433594 38.636719 18.601562 38.539062 C 21.007812 36.878906 23.582031 35.46875 26.304688 34.320312 C 28.726562 33.292969 31.285156 32.480469 33.90625 31.898438 C 34.621094 31.75 35.351562 31.597656 36.097656 31.5 C 38.304688 31.117188 40.578125 30.933594 42.886719 30.933594 C 52.863281 30.933594 62.027344 34.40625 69.296875 40.148438 C 70.394531 41.011719 71.457031 41.925781 72.453125 42.902344 C 73.8125 44.199219 75.089844 45.578125 76.269531 47.039062 C 76.503906 47.335938 76.734375 47.636719 76.96875 47.949219 C 77.28125 48.347656 77.582031 48.761719 77.878906 49.179688 Z M 77.878906 49.179688 "/>
<path style=" stroke:none;fill-rule:nonzero;fill:rgb(84.705883%,10.588235%,37.64706%);fill-opacity:1;" d="M 77.878906 55.835938 L 77.878906 61.28125 C 77.878906 62.359375 77.78125 63.421875 77.582031 64.449219 C 77.28125 65.976562 76.769531 67.4375 76.070312 68.800781 C 75.707031 68.882812 75.289062 68.882812 74.824219 68.816406 C 73.78125 68.632812 72.550781 68.085938 71.222656 67.371094 C 71.15625 67.355469 71.089844 67.324219 71.039062 67.289062 C 70.625 67.074219 70.195312 66.839844 69.761719 66.574219 C 68.882812 66.09375 67.953125 65.5625 67.023438 65.066406 C 66.824219 64.964844 66.625 64.867188 66.441406 64.765625 C 65.378906 64.21875 64.285156 63.71875 63.1875 63.339844 C 63.1875 63.339844 63.1875 63.339844 63.171875 63.339844 C 62.941406 63.253906 62.691406 63.171875 62.441406 63.105469 C 61.496094 62.839844 60.53125 62.675781 59.601562 62.675781 L 57.777344 62.144531 L 49.691406 59.800781 C 49.691406 59.800781 49.691406 59.800781 49.675781 59.800781 L 44.714844 58.359375 L 44.695312 58.359375 L 42.539062 57.726562 C 36.296875 57.726562 32.460938 60.382812 30.601562 59.371094 C 29.871094 58.988281 29.441406 58.027344 29.292969 56.132812 C 29.242188 55.601562 29.226562 55.003906 29.226562 54.308594 L 27.28125 53.363281 L 27.199219 53.328125 L 27.183594 53.328125 L 25.789062 52.632812 L 24.261719 51.902344 L 24.144531 51.851562 L 23.863281 51.703125 L 20.609375 50.125 L 18.121094 48.914062 L 18.121094 43.21875 C 18.402344 42.96875 18.699219 42.738281 19 42.503906 C 19.316406 42.257812 19.628906 42.023438 19.945312 41.773438 C 19.960938 41.773438 19.960938 41.773438 19.960938 41.773438 C 21.921875 40.363281 23.996094 39.117188 26.203125 38.089844 C 28.777344 36.863281 31.515625 35.914062 34.355469 35.300781 C 34.769531 35.203125 35.203125 35.101562 35.632812 35.035156 C 37.988281 34.585938 40.414062 34.355469 42.886719 34.355469 C 51.636719 34.355469 59.667969 37.195312 66.144531 41.972656 C 68.019531 43.367188 69.761719 44.914062 71.355469 46.589844 C 72.667969 47.96875 73.878906 49.460938 74.976562 51.019531 C 75.058594 51.136719 75.140625 51.253906 75.222656 51.351562 C 75.839844 52.25 76.402344 53.164062 76.933594 54.109375 C 77.28125 54.671875 77.582031 55.253906 77.878906 55.835938 Z M 77.878906 55.835938 "/>
<path style=" stroke:none;fill-rule:nonzero;fill:rgb(96.078432%,0%,34.117648%);fill-opacity:1;" d="M 77.582031 64.449219 C 77.28125 65.976562 76.769531 67.4375 76.070312 68.800781 C 75.753906 69.414062 75.40625 69.996094 75.023438 70.558594 C 74.792969 70.90625 74.542969 71.238281 74.292969 71.554688 C 73.695312 71.324219 72.816406 70.992188 71.738281 70.625 C 71.738281 70.625 71.738281 70.625 71.738281 70.609375 C 70.925781 70.328125 69.996094 70.027344 69 69.746094 C 68.714844 69.664062 68.433594 69.578125 68.136719 69.496094 C 66.957031 69.179688 65.730469 68.898438 64.535156 68.734375 C 63.539062 68.566406 62.558594 68.46875 61.644531 68.46875 L 60.882812 68.253906 L 60.863281 68.253906 L 56.847656 67.089844 L 54.375 66.375 L 51.617188 65.578125 L 51.601562 65.578125 L 50.707031 65.332031 L 39.867188 62.210938 L 36.746094 61.3125 L 34.421875 60.765625 L 30.636719 59.867188 L 30.171875 59.753906 C 30.171875 59.753906 30.171875 59.753906 30.15625 59.753906 L 26.355469 58.871094 C 26.355469 58.855469 26.355469 58.855469 26.355469 58.855469 L 25.671875 58.707031 L 25.324219 58.625 L 22.550781 57.976562 L 22.238281 57.894531 L 19.878906 55.953125 L 18.121094 54.472656 L 18.121094 47.703125 C 18.734375 47.105469 19.363281 46.539062 20.027344 45.992188 C 20.226562 45.808594 20.445312 45.644531 20.660156 45.476562 C 20.859375 45.3125 21.074219 45.144531 21.289062 44.980469 C 22.800781 43.832031 24.394531 42.804688 26.089844 41.925781 C 28.246094 40.761719 30.535156 39.832031 32.945312 39.167969 C 33.410156 39.019531 33.875 38.886719 34.355469 38.785156 C 37.078125 38.105469 39.933594 37.757812 42.886719 37.757812 C 50.308594 37.757812 57.214844 40 62.921875 43.832031 C 65.761719 45.742188 68.320312 48.035156 70.476562 50.640625 C 71.570312 51.949219 72.566406 53.328125 73.449219 54.789062 C 73.53125 54.90625 73.597656 55.003906 73.664062 55.121094 C 74.195312 56 74.691406 56.914062 75.140625 57.84375 C 75.554688 58.671875 75.921875 59.503906 76.253906 60.367188 C 76.785156 61.695312 77.214844 63.054688 77.582031 64.449219 Z M 77.582031 64.449219 "/>
<path style=" stroke:none;fill-rule:nonzero;fill:rgb(100%,9.019608%,26.666668%);fill-opacity:1;" d="M 75.023438 70.558594 C 74.792969 70.90625 74.542969 71.238281 74.292969 71.554688 C 73.5625 72.46875 72.765625 73.296875 71.871094 74.027344 C 71.089844 74.675781 70.261719 75.257812 69.378906 75.753906 C 69.046875 75.671875 68.71875 75.574219 68.367188 75.441406 C 67.273438 75.058594 66.128906 74.425781 65.066406 73.761719 C 63.472656 72.75 62.09375 71.65625 61.480469 71.15625 C 61.246094 70.957031 61.128906 70.859375 61.128906 70.859375 L 58.308594 70.609375 L 57.960938 70.574219 L 54.308594 70.261719 L 50.523438 69.929688 L 44.929688 69.429688 L 36.066406 68.652344 L 36.03125 68.632812 L 32.910156 67.125 L 29.757812 65.597656 L 27.21875 64.367188 L 26.667969 64.101562 L 25.988281 63.769531 L 23.632812 62.625 L 20.492188 61.113281 L 19.515625 60.632812 L 18.121094 60.199219 L 18.121094 52.78125 C 18.898438 51.851562 19.730469 50.972656 20.609375 50.125 C 21.175781 49.59375 21.773438 49.0625 22.386719 48.5625 C 22.484375 48.480469 22.585938 48.398438 22.683594 48.332031 C 22.75 48.25 22.835938 48.199219 22.902344 48.164062 C 23.878906 47.371094 24.910156 46.65625 25.972656 46.007812 C 27.199219 45.226562 28.496094 44.53125 29.839844 43.949219 C 31.285156 43.300781 32.792969 42.753906 34.355469 42.339844 C 37.0625 41.574219 39.933594 41.175781 42.886719 41.175781 C 49.660156 41.175781 55.917969 43.234375 61.082031 46.773438 C 64.382812 49.027344 67.238281 51.882812 69.496094 55.1875 C 70.242188 56.25 70.90625 57.378906 71.523438 58.539062 C 71.738281 58.972656 71.953125 59.402344 72.136719 59.835938 C 72.335938 60.25 72.519531 60.664062 72.699219 61.082031 C 73.050781 61.945312 73.363281 62.808594 73.648438 63.703125 C 74.179688 65.363281 74.578125 67.058594 74.824219 68.816406 C 74.910156 69.398438 74.976562 69.976562 75.023438 70.558594 Z M 75.023438 70.558594 "/>
<path style=" stroke:none;fill-rule:nonzero;fill:rgb(100%,34.117648%,13.333334%);fill-opacity:1;" d="M 71.886719 73.597656 C 71.886719 73.730469 71.886719 73.878906 71.871094 74.027344 C 71.089844 74.675781 70.261719 75.257812 69.378906 75.753906 C 69.015625 75.953125 68.652344 76.152344 68.269531 76.320312 C 67.886719 76.503906 67.503906 76.667969 67.105469 76.816406 C 66.542969 76.519531 65.777344 76.152344 64.964844 75.804688 C 63.820312 75.289062 62.574219 74.824219 61.613281 74.675781 C 61.378906 74.625 61.164062 74.609375 60.964844 74.609375 L 58.242188 74.261719 L 58.210938 74.261719 L 54.824219 73.8125 L 51.402344 73.363281 L 49.808594 73.164062 L 37.261719 71.539062 C 36.445312 71.539062 35.582031 71.488281 34.6875 71.371094 C 33.589844 71.273438 32.445312 71.105469 31.300781 70.875 C 30.171875 70.675781 29.027344 70.410156 27.929688 70.128906 C 26.785156 69.863281 25.65625 69.546875 24.609375 69.246094 C 23.398438 68.882812 22.269531 68.535156 21.324219 68.21875 C 20.542969 67.96875 19.878906 67.738281 19.363281 67.554688 C 19.066406 66.839844 18.816406 66.09375 18.632812 65.332031 C 18.285156 64.035156 18.121094 62.675781 18.121094 61.28125 L 18.121094 58.507812 C 18.652344 57.628906 19.230469 56.765625 19.878906 55.953125 C 21.058594 54.390625 22.402344 52.964844 23.863281 51.703125 C 23.914062 51.636719 23.980469 51.585938 24.03125 51.550781 L 24.046875 51.535156 C 24.5625 51.070312 25.09375 50.65625 25.65625 50.257812 C 25.722656 50.191406 25.789062 50.140625 25.855469 50.089844 C 26.121094 49.890625 26.402344 49.691406 26.703125 49.511719 C 29.074219 47.902344 31.699219 46.640625 34.503906 45.792969 C 37.160156 44.996094 39.964844 44.582031 42.886719 44.582031 C 48.679688 44.582031 54.09375 46.289062 58.605469 49.210938 C 61.945312 51.351562 64.816406 54.175781 67.007812 57.480469 C 67.273438 57.859375 67.523438 58.242188 67.769531 58.640625 C 68.914062 60.582031 69.863281 62.675781 70.558594 64.867188 C 70.640625 65.113281 70.707031 65.363281 70.773438 65.628906 C 70.90625 66.078125 71.023438 66.542969 71.125 67.007812 C 71.15625 67.125 71.191406 67.238281 71.222656 67.371094 C 71.457031 68.417969 71.621094 69.511719 71.738281 70.609375 C 71.738281 70.625 71.738281 70.625 71.738281 70.625 C 71.835938 71.605469 71.886719 72.601562 71.886719 73.597656 Z M 71.886719 73.597656 "/>
<path style=" stroke:none;fill-rule:nonzero;fill:rgb(100%,43.529412%,0%);fill-opacity:1;" d="M 68.46875 73.597656 C 68.46875 74.179688 68.433594 74.808594 68.367188 75.441406 C 68.335938 75.738281 68.300781 76.039062 68.269531 76.320312 C 67.886719 76.503906 67.503906 76.667969 67.105469 76.816406 C 66.359375 77.101562 65.597656 77.332031 64.816406 77.5 C 64.285156 77.613281 63.738281 77.714844 63.1875 77.765625 L 63.171875 77.765625 C 62.65625 77.449219 62.058594 77.066406 61.445312 76.636719 C 60.332031 75.855469 59.171875 74.976562 58.242188 74.261719 C 58.226562 74.246094 58.226562 74.246094 58.210938 74.226562 C 57.230469 73.480469 56.53125 72.917969 56.53125 72.917969 L 54.773438 72.984375 L 51.386719 73.097656 L 49.808594 73.164062 L 43.46875 73.398438 L 38.105469 73.597656 C 37.757812 73.613281 37.34375 73.613281 36.828125 73.597656 L 36.8125 73.597656 C 36.113281 73.582031 35.285156 73.53125 34.371094 73.449219 C 33.308594 73.363281 32.148438 73.265625 30.96875 73.148438 C 29.824219 73.015625 28.660156 72.882812 27.546875 72.75 C 26.320312 72.617188 25.160156 72.46875 24.164062 72.335938 C 23.382812 72.234375 22.703125 72.152344 22.152344 72.085938 C 21.6875 71.554688 21.273438 71.007812 20.875 70.410156 C 20.277344 69.511719 19.761719 68.566406 19.363281 67.554688 C 19.066406 66.839844 18.816406 66.09375 18.632812 65.332031 C 19.117188 63.851562 19.746094 62.457031 20.492188 61.113281 C 21.089844 60.019531 21.789062 58.972656 22.550781 57.976562 C 23.300781 56.996094 24.113281 56.085938 24.992188 55.253906 L 24.992188 55.238281 C 25.242188 54.988281 25.492188 54.757812 25.738281 54.539062 C 26.203125 54.109375 26.6875 53.710938 27.183594 53.328125 L 27.199219 53.328125 C 27.21875 53.296875 27.234375 53.296875 27.25 53.277344 C 27.648438 52.964844 28.0625 52.679688 28.476562 52.398438 C 30.933594 50.722656 33.707031 49.476562 36.695312 48.746094 C 38.671875 48.265625 40.746094 48 42.886719 48 C 47.105469 48 51.085938 49.011719 54.589844 50.839844 L 54.605469 50.839844 C 57.613281 52.382812 60.265625 54.507812 62.410156 57.0625 C 63.585938 58.425781 64.601562 59.917969 65.429688 61.496094 C 66.011719 62.558594 66.507812 63.671875 66.925781 64.800781 C 66.957031 64.898438 66.992188 64.980469 67.023438 65.066406 C 67.304688 65.894531 67.554688 66.757812 67.769531 67.621094 C 67.921875 68.234375 68.035156 68.867188 68.136719 69.496094 C 68.167969 69.695312 68.203125 69.878906 68.21875 70.078125 C 68.386719 71.222656 68.46875 72.402344 68.46875 73.597656 Z M 68.46875 73.597656 "/>
<path style=" stroke:none;fill-rule:nonzero;fill:rgb(100%,59.607846%,0%);fill-opacity:1;" d="M 65.066406 73.597656 L 65.066406 73.761719 C 65.066406 74.328125 65.015625 75.042969 64.964844 75.804688 C 64.914062 76.371094 64.867188 76.949219 64.816406 77.5 C 64.285156 77.613281 63.738281 77.714844 63.1875 77.765625 L 63.171875 77.765625 C 62.542969 77.847656 61.925781 77.878906 61.28125 77.878906 L 58.375 77.878906 L 57.746094 77.699219 L 54.472656 76.703125 L 51.152344 75.707031 L 43.46875 73.398438 L 40.148438 72.402344 C 40.148438 72.402344 38.769531 72.949219 36.828125 73.597656 L 36.8125 73.597656 C 36.066406 73.847656 35.25 74.113281 34.386719 74.378906 C 33.308594 74.691406 32.164062 75.007812 31.035156 75.257812 C 29.871094 75.523438 28.726562 75.722656 27.699219 75.804688 C 27.382812 75.839844 27.066406 75.855469 26.785156 75.855469 C 25.855469 75.339844 24.960938 74.726562 24.144531 74.046875 C 23.433594 73.449219 22.769531 72.800781 22.152344 72.085938 C 21.6875 71.554688 21.273438 71.007812 20.875 70.410156 C 20.992188 69.664062 21.125 68.933594 21.324219 68.21875 C 21.820312 66.242188 22.601562 64.351562 23.632812 62.625 C 24.195312 61.644531 24.828125 60.699219 25.558594 59.820312 C 25.574219 59.769531 25.625 59.71875 25.671875 59.6875 C 25.65625 59.667969 25.671875 59.667969 25.671875 59.667969 C 25.890625 59.386719 26.121094 59.121094 26.355469 58.871094 C 26.355469 58.855469 26.355469 58.855469 26.355469 58.855469 C 27.035156 58.125 27.730469 57.429688 28.496094 56.78125 C 28.761719 56.566406 29.007812 56.351562 29.292969 56.132812 C 29.339844 56.085938 29.390625 56.050781 29.457031 56 C 33.191406 53.144531 37.855469 51.417969 42.886719 51.417969 C 48.597656 51.417969 53.792969 53.5625 57.726562 57.082031 C 59.621094 58.789062 61.230469 60.832031 62.441406 63.105469 C 62.542969 63.273438 62.640625 63.453125 62.722656 63.636719 C 62.875 63.9375 63.023438 64.25 63.15625 64.582031 C 63.703125 65.777344 64.136719 67.039062 64.433594 68.335938 C 64.46875 68.46875 64.5 68.601562 64.535156 68.734375 C 64.667969 69.347656 64.78125 69.976562 64.867188 70.609375 C 65 71.589844 65.066406 72.585938 65.066406 73.597656 Z M 65.066406 73.597656 "/>
<path style=" stroke:none;fill-rule:nonzero;fill:rgb(100%,75.686276%,2.745098%);fill-opacity:1;" d="M 61.644531 73.597656 C 61.644531 73.929688 61.628906 74.292969 61.613281 74.675781 C 61.578125 75.289062 61.527344 75.953125 61.445312 76.636719 C 61.414062 77.050781 61.347656 77.464844 61.28125 77.878906 L 52.183594 77.878906 L 50.421875 77.597656 L 43.550781 76.503906 L 42.570312 76.351562 L 40.332031 75.988281 C 39.351562 75.988281 37.226562 76.417969 34.984375 76.835938 C 33.808594 77.050781 32.613281 77.28125 31.53125 77.433594 C 31.398438 77.449219 31.265625 77.464844 31.152344 77.480469 L 31.132812 77.480469 C 29.972656 77.234375 28.84375 76.851562 27.78125 76.351562 C 27.449219 76.203125 27.117188 76.039062 26.785156 75.855469 C 25.855469 75.339844 24.960938 74.726562 24.144531 74.046875 C 24.128906 73.847656 24.113281 73.679688 24.113281 73.597656 C 24.113281 73.164062 24.128906 72.75 24.164062 72.335938 C 24.230469 71.273438 24.378906 70.242188 24.609375 69.246094 C 24.976562 67.738281 25.507812 66.277344 26.222656 64.933594 C 26.355469 64.648438 26.503906 64.367188 26.667969 64.101562 C 26.734375 63.96875 26.820312 63.851562 26.886719 63.71875 C 27.183594 63.238281 27.515625 62.773438 27.847656 62.308594 C 28.542969 61.394531 29.324219 60.53125 30.15625 59.753906 C 30.171875 59.753906 30.171875 59.753906 30.171875 59.753906 C 30.238281 59.6875 30.304688 59.621094 30.371094 59.570312 C 30.453125 59.503906 30.519531 59.421875 30.601562 59.371094 C 30.933594 59.070312 31.265625 58.804688 31.617188 58.558594 C 31.617188 58.539062 31.632812 58.539062 31.632812 58.539062 C 34.769531 56.199219 38.652344 54.824219 42.886719 54.824219 C 46.175781 54.824219 49.226562 55.652344 51.902344 57.113281 L 51.917969 57.113281 C 54.207031 58.375 56.199219 60.085938 57.777344 62.144531 C 58.390625 62.941406 58.9375 63.785156 59.402344 64.683594 L 59.421875 64.683594 C 59.503906 64.847656 59.585938 65.015625 59.667969 65.179688 C 60.167969 66.160156 60.566406 67.191406 60.863281 68.253906 L 60.882812 68.253906 C 60.898438 68.335938 60.929688 68.417969 60.949219 68.5 C 61.148438 69.214844 61.3125 69.945312 61.429688 70.691406 C 61.445312 70.839844 61.460938 71.007812 61.480469 71.15625 C 61.59375 71.953125 61.644531 72.765625 61.644531 73.597656 Z M 61.644531 73.597656 "/>
<path style=" stroke:none;fill-rule:nonzero;fill:rgb(100%,83.529413%,30.980393%);fill-opacity:1;" d="M 58.242188 73.414062 C 58.242188 73.679688 58.242188 73.960938 58.210938 74.226562 L 58.210938 74.246094 C 58.210938 74.261719 58.210938 74.261719 58.210938 74.261719 C 58.175781 75.457031 58.011719 76.636719 57.746094 77.699219 C 57.746094 77.765625 57.726562 77.8125 57.695312 77.878906 L 49.941406 77.878906 L 43.550781 76.503906 L 42.703125 76.320312 L 42.570312 76.351562 L 35.484375 77.8125 L 35.167969 77.878906 L 34.71875 77.878906 C 33.65625 77.878906 32.613281 77.78125 31.597656 77.582031 C 31.449219 77.546875 31.300781 77.515625 31.152344 77.480469 L 31.132812 77.480469 C 29.972656 77.234375 28.84375 76.851562 27.78125 76.351562 C 27.746094 76.171875 27.714844 75.988281 27.699219 75.804688 C 27.582031 75.089844 27.53125 74.34375 27.53125 73.597656 C 27.53125 73.316406 27.53125 73.03125 27.546875 72.75 C 27.597656 71.855469 27.730469 70.972656 27.929688 70.128906 C 28.0625 69.496094 28.246094 68.882812 28.460938 68.300781 C 28.644531 67.789062 28.859375 67.289062 29.09375 66.808594 C 29.292969 66.394531 29.523438 65.996094 29.757812 65.597656 C 29.988281 65.214844 30.238281 64.847656 30.503906 64.484375 C 31.167969 63.570312 31.949219 62.722656 32.8125 61.976562 C 33.308594 61.546875 33.855469 61.128906 34.421875 60.765625 C 36.84375 59.171875 39.75 58.242188 42.886719 58.242188 C 43.5 58.242188 44.097656 58.277344 44.679688 58.359375 L 44.714844 58.359375 C 46.488281 58.558594 48.148438 59.054688 49.675781 59.800781 C 49.691406 59.800781 49.691406 59.800781 49.691406 59.800781 C 52.101562 60.980469 54.140625 62.757812 55.636719 64.949219 C 55.886719 65.3125 56.132812 65.710938 56.351562 66.109375 C 56.53125 66.425781 56.699219 66.757812 56.847656 67.089844 C 57.082031 67.605469 57.296875 68.152344 57.480469 68.699219 L 57.496094 68.699219 C 57.679688 69.3125 57.84375 69.929688 57.960938 70.574219 L 57.960938 70.59375 C 58.144531 71.503906 58.242188 72.453125 58.242188 73.414062 Z M 58.242188 73.414062 "/>
<path style=" stroke:none;fill-rule:nonzero;fill:rgb(100%,87.843138%,50.980395%);fill-opacity:1;" d="M 54.824219 73.761719 L 54.824219 73.8125 C 54.824219 74.792969 54.707031 75.753906 54.472656 76.703125 C 54.390625 77.101562 54.273438 77.5 54.125 77.878906 L 46.6875 77.878906 L 42.886719 76.835938 L 39.085938 77.878906 L 34.71875 77.878906 C 33.65625 77.878906 32.613281 77.78125 31.597656 77.582031 C 31.566406 77.53125 31.550781 77.480469 31.53125 77.433594 C 31.300781 76.71875 31.117188 76.003906 31.035156 75.257812 C 30.96875 74.777344 30.933594 74.277344 30.933594 73.761719 C 30.933594 73.5625 30.933594 73.347656 30.96875 73.148438 C 30.984375 72.367188 31.101562 71.605469 31.300781 70.875 C 31.398438 70.375 31.550781 69.894531 31.75 69.429688 C 31.816406 69.199219 31.914062 68.980469 32.03125 68.765625 C 32.28125 68.203125 32.578125 67.65625 32.910156 67.125 C 33.277344 66.59375 33.675781 66.09375 34.121094 65.628906 C 34.652344 65.03125 35.25 64.484375 35.933594 64.035156 C 37.09375 63.1875 38.421875 62.558594 39.867188 62.210938 C 40.828125 61.945312 41.839844 61.8125 42.886719 61.8125 C 46.207031 61.8125 49.179688 63.140625 51.335938 65.28125 C 51.417969 65.363281 51.519531 65.464844 51.601562 65.578125 L 51.617188 65.578125 C 51.851562 65.828125 52.066406 66.078125 52.28125 66.359375 C 52.898438 67.140625 53.410156 67.988281 53.808594 68.914062 C 54.007812 69.347656 54.175781 69.796875 54.308594 70.261719 C 54.324219 70.328125 54.339844 70.375 54.359375 70.441406 C 54.589844 71.257812 54.738281 72.101562 54.773438 72.984375 C 54.804688 73.230469 54.824219 73.496094 54.824219 73.761719 Z M 54.824219 73.761719 "/>
<path style=" stroke:none;fill-rule:nonzero;fill:rgb(100%,92.54902%,70.19608%);fill-opacity:1;" d="M 51.417969 73.761719 C 51.417969 74.445312 51.335938 75.089844 51.152344 75.707031 C 50.988281 76.371094 50.738281 77 50.421875 77.597656 C 50.375 77.699219 50.257812 77.878906 50.257812 77.878906 L 35.515625 77.878906 C 35.5 77.863281 35.484375 77.832031 35.484375 77.8125 C 35.285156 77.5 35.117188 77.183594 34.984375 76.835938 C 34.652344 76.070312 34.453125 75.242188 34.386719 74.378906 C 34.355469 74.179688 34.355469 73.960938 34.355469 73.761719 C 34.355469 73.664062 34.355469 73.546875 34.371094 73.449219 C 34.386719 72.71875 34.488281 72.019531 34.6875 71.371094 C 34.851562 70.773438 35.070312 70.226562 35.351562 69.695312 C 35.351562 69.695312 35.367188 69.679688 35.367188 69.664062 C 35.566406 69.3125 35.78125 68.964844 36.03125 68.632812 C 36.84375 67.539062 37.921875 66.640625 39.167969 66.0625 C 39.183594 66.0625 39.183594 66.0625 39.183594 66.0625 C 39.582031 65.863281 40 65.695312 40.429688 65.578125 C 40.429688 65.578125 40.429688 65.578125 40.445312 65.578125 C 41.210938 65.347656 42.039062 65.230469 42.886719 65.230469 C 43.867188 65.230469 44.8125 65.378906 45.675781 65.695312 C 45.992188 65.777344 46.289062 65.910156 46.589844 66.0625 C 46.589844 66.0625 46.589844 66.0625 46.605469 66.0625 C 48.03125 66.742188 49.246094 67.804688 50.074219 69.132812 C 50.242188 69.378906 50.390625 69.644531 50.523438 69.929688 C 50.589844 70.042969 50.65625 70.175781 50.707031 70.292969 C 51.085938 71.15625 51.320312 72.101562 51.386719 73.097656 C 51.402344 73.183594 51.402344 73.265625 51.402344 73.363281 C 51.417969 73.496094 51.417969 73.628906 51.417969 73.761719 Z M 51.417969 73.761719 "/>
<path style="fill:none;stroke-width:7.125;stroke-linecap:round;stroke-linejoin:round;stroke:rgb(100%,100%,100%);stroke-opacity:1;stroke-miterlimit:10;" d="M 103.24292 47.063965 L 67.75708 47.063965 C 56.227661 47.063965 47.063965 56.227661 47.063965 67.75708 L 47.063965 103.24292 C 47.063965 114.772339 56.227661 123.936035 67.75708 123.936035 L 103.24292 123.936035 C 114.772339 123.936035 123.936035 114.772339 123.936035 103.24292 L 123.936035 67.75708 C 123.936035 56.227661 114.772339 47.063965 103.24292 47.063965 Z M 103.24292 47.063965 " transform="matrix(0.561404,0,0,0.561404,0,0)"/>
<path style=" stroke:none;fill-rule:nonzero;fill:rgb(100%,100%,100%);fill-opacity:1;" d="M 61.28125 34.71875 C 61.28125 35.636719 60.535156 36.378906 59.621094 36.378906 C 58.703125 36.378906 57.960938 35.636719 57.960938 34.71875 C 57.960938 33.804688 58.703125 33.058594 59.621094 33.058594 C 60.535156 33.058594 61.28125 33.804688 61.28125 34.71875 Z M 61.28125 34.71875 "/>
<path style="fill:none;stroke-width:7.125;stroke-linecap:round;stroke-linejoin:round;stroke:rgb(100%,100%,100%);stroke-opacity:1;stroke-miterlimit:10;" d="M 34.916286 28.915711 C 34.916286 32.228969 32.228969 34.916286 28.915711 34.916286 C 25.602452 34.916286 22.915136 32.228969 22.915136 28.915711 C 22.915136 25.602452 25.602452 22.915136 28.915711 22.915136 C 32.228969 22.915136 34.916286 25.602452 34.916286 28.915711 Z M 34.916286 28.915711 " transform="matrix(1.659997,0,0,1.659997,0,0)"/>
</g>
</svg>
