<?xml version="1.0" encoding="UTF-8"?>
<svg xmlns="http://www.w3.org/2000/svg" xmlns:xlink="http://www.w3.org/1999/xlink" viewBox="0 0 96 96" width="96px" height="96px">
<g id="surface22656660">
<path style=" stroke:none;fill-rule:nonzero;fill:rgb(92.54902%,94.117647%,94.509804%);fill-opacity:1;" d="M 48.28125 96.28125 C 21.769531 96.28125 0.28125 74.789062 0.28125 48.28125 C 0.28125 21.769531 21.769531 0.28125 48.28125 0.28125 C 74.789062 0.28125 96.28125 21.769531 96.28125 48.28125 C 96.28125 74.789062 74.789062 96.28125 48.28125 96.28125 Z M 48.28125 96.28125 "/>
<path style=" stroke:none;fill-rule:nonzero;fill:rgb(100%,23.921569%,0%);fill-opacity:1;" d="M 77.695312 63.300781 C 77.078125 66.546875 74.453125 69.019531 71.207031 69.484375 C 66.105469 70.253906 57.605469 71.183594 48.023438 71.183594 C 38.59375 71.183594 30.09375 70.253906 24.839844 69.484375 C 21.59375 69.019531 18.964844 66.546875 18.347656 63.300781 C 17.730469 59.746094 17.113281 54.492188 17.113281 48 C 17.113281 41.507812 17.730469 36.253906 18.347656 32.699219 C 18.964844 29.453125 21.59375 26.980469 24.839844 26.515625 C 29.941406 25.746094 38.441406 24.816406 48.023438 24.816406 C 57.605469 24.816406 65.949219 25.746094 71.207031 26.515625 C 74.453125 26.980469 77.078125 29.453125 77.695312 32.699219 C 78.316406 36.253906 79.089844 41.507812 79.089844 48 C 78.933594 54.492188 78.316406 59.746094 77.695312 63.300781 Z M 77.695312 63.300781 "/>
<path style=" stroke:none;fill-rule:nonzero;fill:rgb(100%,100%,100%);fill-opacity:1;" d="M 41.839844 58.820312 L 41.839844 37.179688 L 60.386719 48 Z M 41.839844 58.820312 "/>
</g>
</svg>
